# xmcd
#
# Track frame offsets:
#	150
#	17026
#	34196
#	52728
#	70336
#	88374
#	103457
#	119892
#	139850
#	160498
#	176241
#	193481
#
# Disc length: 2802 seconds
#
# Revision: 1
# Processed by: cddbd v1.4PL0 Copyright (c) Steve Scherf et al.
# Submitted via: audiograbber 1.81.03
#
DISCID=bf0af00c
DTITLE=Valeria Rossi - Tre Parole
DYEAR=2002
DGENRE=
TTITLE0=Tre parole (versión española)
TTITLE1=Todas las mañanas
TTITLE2=Pensaba en ti
TTITLE3=Las mujeres sólo quieren
TTITLE4=Non ho sonno
TTITLE5=La donna invisibile
TTITLE6=Como a girasoles
TTITLE7=Ossigeno
TTITLE8=Straniero
TTITLE9=Todo el amor quema
TTITLE10=Tu sei bellissimo
TTITLE11=Tre parole (versión italiana)
EXTD=
EXTT0=
EXTT1=
EXTT2=
EXTT3=
EXTT4=
EXTT5=
EXTT6=
EXTT7=
EXTT8=
EXTT9=
EXTT10=
EXTT11=
PLAYORDER=
